<?xml version="1.0" encoding="UTF-8"?>
<svg width="60px" height="60px" viewBox="0 0 60 60" version="1.1" xmlns="http://www.w3.org/2000/svg" xmlns:xlink="http://www.w3.org/1999/xlink">
    <!-- Generator: Sketch 52.1 (67048) - http://www.bohemiancoding.com/sketch -->
    <title>Group 2</title>
    <desc>Created with Sketch.</desc>
    <g id="Page-1" stroke="none" stroke-width="1" fill="none" fill-rule="evenodd">
        <g id="01-登录-copy-2" transform="translate(-158.000000, -84.000000)">
            <g id="Group-2" transform="translate(158.000000, 84.000000)">
                <circle id="Oval" fill="#FFFFFF" cx="30" cy="30" r="30"></circle>
                <g id="Group-13" transform="translate(7.200000, 7.200000)">
                    <path d="M19.53342,7.30428 C19.10562,6.40008 18.35202,5.95128 17.28822,5.95128 C16.36242,5.95128 15.68502,6.31728 15.26442,7.04208 C14.54562,8.31108 14.82102,10.42308 14.82222,11.86548 L14.82222,11.87508 C14.82222,11.90028 14.82102,11.92608 14.82042,11.95128 C14.82042,11.97648 14.81922,12.00168 14.81802,12.02688 C14.81682,12.05208 14.81502,12.07668 14.81322,12.10128 C14.81142,12.12648 14.80962,12.15168 14.80722,12.17628 C14.80362,12.20148 14.80122,12.22548 14.79762,12.25008 C14.79462,12.27468 14.79222,12.29988 14.78802,12.32388 C14.78382,12.34848 14.78022,12.37248 14.77542,12.39648 C14.77122,12.42048 14.76762,12.44508 14.76222,12.46848 C14.75682,12.49248 14.75202,12.51648 14.74602,12.54048 C14.74062,12.56448 14.73522,12.58788 14.72982,12.61128 C14.72262,12.63528 14.71602,12.65808 14.71062,12.68148 C14.70282,12.70488 14.69682,12.72828 14.68902,12.75168 C14.68182,12.77448 14.67462,12.79728 14.66742,12.82008 C14.65962,12.84288 14.65122,12.86508 14.64342,12.88848 C14.63502,12.91068 14.62602,12.93288 14.61762,12.95568 C14.60802,12.97788 14.59902,12.99948 14.59062,13.02168 L14.59062,13.02228 C14.58102,13.04388 14.57142,13.06548 14.56182,13.08768 C14.55162,13.10928 14.54142,13.13088 14.53182,13.15248 C14.52102,13.17408 14.51082,13.19508 14.49882,13.21608 C14.48862,13.23768 14.47782,13.25868 14.46642,13.27968 C14.45502,13.30008 14.44302,13.32108 14.43222,13.34208 C14.41962,13.36248 14.40762,13.38228 14.39502,13.40328 C14.38302,13.42368 14.37042,13.44348 14.35722,13.46328 C14.34462,13.48308 14.33202,13.50288 14.31882,13.52268 C14.30502,13.54188 14.29242,13.56168 14.27862,13.58088 L14.23662,13.63788 C14.22222,13.65708 14.20722,13.67568 14.19342,13.69428 C14.17902,13.71288 14.16402,13.73088 14.14902,13.74948 C14.13342,13.76748 14.11842,13.78548 14.10282,13.80348 C14.08782,13.82088 14.07162,13.83888 14.05602,13.85568 C14.04042,13.87368 14.02422,13.89108 14.00802,13.90788 C13.99182,13.92468 13.97502,13.94208 13.95882,13.95828 C13.94142,13.97568 13.92462,13.99188 13.90782,14.00808 C13.89102,14.02488 13.87302,14.04048 13.85622,14.05608 C13.83822,14.07168 13.82142,14.08788 13.80342,14.10348 C13.78542,14.11848 13.76802,14.13348 13.74882,14.14908 C13.73022,14.16408 13.71282,14.17848 13.69482,14.19288 C13.67502,14.20788 13.65702,14.22228 13.63902,14.23608 C13.61922,14.25048 13.60002,14.26428 13.58142,14.27868 C13.56162,14.29188 13.54182,14.30508 13.52202,14.31828 C13.50282,14.33148 13.48362,14.34468 13.46322,14.35728 C13.44342,14.37048 13.42302,14.38248 13.40322,14.39508 C13.38342,14.40768 13.36242,14.41968 13.34262,14.43108 C13.32102,14.44308 13.30002,14.45448 13.27962,14.46648 C13.25922,14.47788 13.23822,14.48808 13.21662,14.49948 C13.19502,14.51028 13.17402,14.52108 13.15242,14.53128 C13.13142,14.54148 13.10922,14.55168 13.08822,14.56128 C13.06602,14.57148 13.04502,14.58048 13.02222,14.59008 C12.99942,14.59968 12.97722,14.60808 12.95562,14.61768 C12.93342,14.62608 12.91122,14.63448 12.88782,14.64288 C12.86562,14.65128 12.84282,14.65908 12.82002,14.66688 C12.79722,14.67528 12.77382,14.68188 12.75162,14.68908 C12.72822,14.69688 12.70482,14.70348 12.68142,14.71008 C12.65862,14.71668 12.63462,14.72328 12.61122,14.72928 C12.58782,14.73528 12.56442,14.74068 12.54102,14.74668 C12.51642,14.75148 12.49302,14.75688 12.46902,14.76168 C12.44562,14.76708 12.42042,14.77128 12.39642,14.77608 C12.37182,14.78028 12.34842,14.78388 12.32382,14.78748 C12.29922,14.79168 12.27462,14.79468 12.25002,14.79828 C12.22542,14.80188 12.20082,14.80428 12.17682,14.80668 C12.15102,14.80908 12.12642,14.81088 12.10122,14.81328 C12.07662,14.81508 12.05082,14.81688 12.02622,14.81808 C12.00162,14.81928 11.97582,14.82048 11.95122,14.82108 C11.92542,14.82168 11.90082,14.82168 11.87502,14.82168 C11.85042,14.82168 11.82582,14.82168 11.80182,14.82108 L11.80002,14.82108 L11.79882,14.82108 L11.79342,14.82108 C11.77182,14.81988 11.74902,14.81928 11.72742,14.81808 L11.71842,14.81748 C11.69742,14.81688 11.67702,14.81508 11.65782,14.81388 L11.63862,14.81268 C11.62062,14.81088 11.60442,14.80968 11.58702,14.80728 L11.55522,14.80428 L11.52582,14.80128 L11.51922,14.80068 L11.47902,14.79528 L11.47242,14.79468 L11.46642,14.79348 L11.45982,14.79228 L11.45322,14.79168 L11.44602,14.79108 C10.16082,14.79108 8.66682,14.64168 7.44882,15.07368 C6.40662,15.44028 5.89002,16.22088 5.89002,17.42328 C5.89002,17.56848 5.91042,17.76168 5.95122,18.01068 C3.92802,18.29388 2.18922,19.25448 0.73242,20.90508 C0.24222,19.76508 -0.00018,18.56988 -0.00018,17.29848 C-0.00018,15.93768 0.31122,14.64528 0.93222,13.42248 C1.55322,12.19968 2.40222,11.21148 3.47982,10.45788 C4.30122,9.89208 5.17782,9.49848 6.09642,9.28368 C7.01802,9.07068 7.97862,8.98128 8.94582,8.94588 C8.98242,8.02188 9.07422,7.10448 9.29382,6.21348 C9.53622,5.22648 9.97842,4.29408 10.62822,3.41748 C12.25842,1.22268 14.46942,0.12468 17.24682,0.12408 C20.16282,0.12408 22.44342,1.22928 24.09342,3.43848 C24.68862,4.25328 25.10202,5.12928 25.34502,6.08208 C25.81662,7.92648 25.75242,9.98328 25.75242,11.87508 C25.75242,13.50228 24.43242,14.82168 22.80582,14.82168 C21.17862,14.82168 19.85802,13.50228 19.85802,11.87508 C19.85802,10.37808 20.17302,8.72868 19.53342,7.30428" id="Fill-1" fill="#00A0E8"></path>
                    <path d="M7.30428,26.06688 C6.40008,26.49528 5.95128,27.24828 5.95128,28.31208 C5.95128,29.23788 6.31728,29.91528 7.04148,30.33648 C8.30688,31.05348 10.41048,30.78048 11.85168,30.77868 L11.87388,30.77808 C11.92488,30.77808 11.97588,30.77928 12.02628,30.78228 C12.05088,30.78348 12.07548,30.78528 12.10008,30.78708 L12.10128,30.78708 C12.12648,30.78888 12.14988,30.79128 12.17448,30.79368 C13.66248,30.94428 14.82228,32.19948 14.82228,33.72588 C14.82228,33.87468 14.81148,34.02168 14.78928,34.16508 C14.78928,35.44728 14.64108,36.93708 15.07188,38.15088 C15.43908,39.19368 16.22028,39.71088 17.42148,39.71088 C17.56668,39.71088 17.76048,39.69048 18.00888,39.64908 C18.29148,41.67168 19.25268,43.41168 20.90388,44.86848 C19.76448,45.35868 18.56808,45.60108 17.29608,45.60108 C15.93648,45.60108 14.64408,45.28968 13.42188,44.66808 C12.19848,44.04648 11.21088,43.19748 10.45728,42.12108 C9.89028,41.29908 9.49608,40.42188 9.28308,39.50388 C9.06828,38.58348 8.98068,37.62228 8.94408,36.65508 C8.02068,36.61848 7.10328,36.52548 6.21288,36.30588 C5.22648,36.06408 4.29408,35.62248 3.41748,34.97268 C1.22268,33.34188 0.12468,31.13028 0.12408,28.35348 C0.12408,25.43808 1.22868,23.15748 3.43848,21.50628 C4.25328,20.91228 5.12988,20.49768 6.08268,20.25528 C7.92708,19.78428 9.98388,19.84848 11.87388,19.84848 C13.50168,19.84848 14.82228,21.16788 14.82228,22.79508 C14.82228,24.42228 13.50168,25.74168 11.87508,25.74168 C10.37808,25.74168 8.72748,25.42728 7.30428,26.06688" id="Fill-4" fill="#009944"></path>
                    <path d="M38.29512,19.5351 C39.19992,19.1067 39.64872,18.3537 39.64872,17.2899 C39.64872,16.3641 39.28272,15.6867 38.55732,15.2655 C37.28712,14.5461 35.17332,14.8233 33.73032,14.8233 L33.72492,14.8233 C32.09712,14.8233 30.77772,13.5039 30.77772,11.8761 C30.77772,11.7285 30.78912,11.5839 30.80892,11.4417 C30.81012,10.1583 30.95832,8.6649 30.52692,7.4493 C30.16032,6.4071 29.37972,5.8893 28.17792,5.8887 C28.03272,5.8887 27.83952,5.9103 27.58992,5.9511 C27.30732,3.9285 26.34672,2.1891 24.69552,0.7323 C25.83552,0.2415 27.03072,-0.0003 28.30152,-0.0003 C29.66292,-0.0003 30.95592,0.3105 32.17812,0.9327 C33.40032,1.5537 34.38912,2.4027 35.14152,3.4797 C35.70792,4.3011 36.10212,5.1783 36.31632,6.0963 C36.52992,7.0173 36.61812,7.9797 36.65472,8.9463 C37.57812,8.9841 38.49612,9.0765 39.38592,9.2955 C40.37292,9.5373 41.30592,9.9801 42.18252,10.6293 C44.37732,12.2601 45.47532,14.4711 45.47532,17.2485 C45.47532,20.1639 44.37012,22.4439 42.16092,24.0951 C41.34672,24.6897 40.47012,25.1037 39.51732,25.3461 C37.67292,25.8177 35.61612,25.7541 33.72492,25.7541 C32.09712,25.7541 30.77772,24.4347 30.77772,22.8069 C30.77772,21.1797 32.09712,19.8603 33.72492,19.8603 C35.22192,19.8603 36.87192,20.1747 38.29512,19.5351" id="Fill-7" fill="#E50113"></path>
                    <path d="M26.06544,38.29596 C26.49324,39.20076 27.24684,39.64896 28.31064,39.64896 C29.23644,39.64896 29.91384,39.28356 30.33504,38.55816 C31.05384,37.28796 30.77664,35.17356 30.77664,33.73116 L30.77664,33.72516 C30.77664,32.09796 32.09724,30.77796 33.72384,30.77796 C33.87384,30.77796 34.02084,30.78936 34.16424,30.81096 C35.44704,30.81216 36.93684,30.95916 38.15004,30.52836 C39.19284,30.16176 39.71064,29.38116 39.71064,28.17876 C39.71064,28.03356 39.68964,27.84036 39.64884,27.59136 C41.67204,27.30876 43.41024,26.34816 44.86764,24.69636 C45.35784,25.83696 45.59964,27.03216 45.59964,28.30356 C45.59964,29.66436 45.28884,30.95616 44.66784,32.17956 C44.04564,33.40176 43.19724,34.38996 42.12084,35.14356 C41.29824,35.70996 40.42104,36.10416 39.50304,36.31836 C38.58264,36.53076 37.62084,36.62076 36.65424,36.65616 C36.61704,37.57896 36.52464,38.49696 36.30504,39.38676 C36.06264,40.37376 35.62104,41.30616 34.97124,42.18276 C33.34044,44.37756 31.12884,45.47616 28.35204,45.47616 C25.43604,45.47616 23.15604,44.37156 21.50484,42.16176 C20.91144,41.34756 20.49564,40.47036 20.25384,39.51756 C19.78284,37.67376 19.84644,35.61696 19.84644,33.72516 C19.84644,32.09796 21.16584,30.77796 22.79364,30.77796 C24.42144,30.77796 25.74084,32.09796 25.74084,33.72516 C25.74084,35.22216 25.42584,36.87216 26.06544,38.29596" id="Fill-10" fill="#EF8200"></path>
                </g>
            </g>
        </g>
    </g>
</svg>